<?xml version="1.0" encoding="utf-8"?>
<!-- Generator: Adobe Illustrator 15.0.0, SVG Export Plug-In . SVG Version: 6.00 Build 0)  -->
<!DOCTYPE svg PUBLIC "-//W3C//DTD SVG 1.1//EN" "http://www.w3.org/Graphics/SVG/1.1/DTD/svg11.dtd">
<svg version="1.1" id="Layer_1" xmlns="http://www.w3.org/2000/svg" xmlns:xlink="http://www.w3.org/1999/xlink" x="0px" y="0px"
	 width="138.557px" height="138.521px" viewBox="0 0 138.557 138.521" enable-background="new 0 0 138.557 138.521"
	 xml:space="preserve">
<g id="Layer_x0020_1">
	<path fill="#FFFFFF" d="M68.998,2.567C32.354,2.412,2.665,32.127,2.015,68.229c-0.686,37.896,29.991,68.106,66.595,68.292
		c37.14,0.182,67.271-30.026,67.378-66.771C136.103,32.717,105.887,2.384,68.998,2.567L68.998,2.567L68.998,2.567L68.998,2.567
		L68.998,2.567z"/>
	<path fill="#BA9666" d="M68.998,2.567c36.89-0.188,67.104,30.146,66.981,67.188c-0.105,36.74-30.236,66.948-67.378,66.771
		c-36.6-0.185-67.271-30.398-66.594-68.293C2.665,32.127,32.354,2.412,68.998,2.567L68.998,2.567L68.998,2.567L68.998,2.567
		L68.998,2.567z M68.072,12.708c-0.388,0.026-0.682,0.063-0.977,0.07c-1.941,0.079-3.894,0.053-5.817,0.263
		c-1.771,0.192-3.523,0.604-5.275,0.981c-1.658,0.354-3.317,0.729-4.938,1.229c-1.604,0.502-3.188,1.146-4.747,1.788
		c-1.931,0.813-3.917,1.537-5.716,2.58c-2.43,1.406-4.782,2.979-7.021,4.667c-2.232,1.688-4.347,3.549-6.398,5.442
		c-1.133,1.043-2.124,2.261-3.066,3.479c-1.579,2.057-3.179,4.104-4.563,6.272c-1.313,2.056-2.498,4.215-3.505,6.434
		c-1.086,2.396-1.979,4.875-2.813,7.368c-0.547,1.622-0.883,3.32-1.245,4.998c-0.379,1.75-0.771,3.505-0.979,5.276
		c-0.211,1.721-0.265,3.468-0.285,5.204c-0.048,2.973-0.057,5.938,0.502,8.883c0.346,1.837,0.563,3.697,0.963,5.521
		c0.341,1.561,0.789,3.089,1.33,4.581c0.938,2.597,1.883,5.195,3.021,7.706c0.854,1.886,1.906,3.691,3.043,5.426
		c1.336,2.042,2.805,4.005,4.307,5.938c1.043,1.341,2.148,2.646,3.38,3.813c1.828,1.741,3.743,3.397,5.706,4.994
		c1.283,1.054,2.685,1.979,4.079,2.877c1.146,0.745,2.341,1.444,3.563,2.053c2.274,1.125,4.569,2.224,6.898,3.229
		c1.362,0.592,2.8,1.015,4.217,1.479c0.9,0.302,1.813,0.568,2.738,0.771c1.481,0.318,2.979,0.604,4.481,0.838
		c1.729,0.271,3.455,0.625,5.188,0.663c3.996,0.085,8.007,0.257,11.979-0.499c1.646-0.313,3.318-0.442,4.938-0.848
		c2.336-0.584,4.66-1.267,6.938-2.063c1.875-0.655,3.688-1.501,5.485-2.354c1.557-0.736,3.087-1.533,4.545-2.439
		c1.523-0.938,2.979-2.012,4.404-3.096c1.646-1.248,3.313-2.481,4.832-3.883c1.604-1.479,3.09-3.104,4.521-4.746
		c1.348-1.542,2.661-3.123,3.783-4.823c1.378-2.088,2.594-4.292,3.785-6.495c1.646-3.031,2.951-6.221,3.9-9.541
		c0.396-1.411,0.721-2.854,0.981-4.296c0.382-2.022,0.688-4.064,1.021-6.104c0.021-0.146,0.014-0.31,0.021-0.451
		c0.146-1.568,0.354-3.146,0.403-4.709c0.043-1.159-0.085-2.325-0.158-3.488c-0.071-1.148-0.137-2.298-0.271-3.438
		c-0.229-1.854-0.438-3.72-0.771-5.56c-0.31-1.687-0.661-3.377-1.188-5c-0.792-2.414-1.688-4.799-2.677-7.137
		c-0.729-1.741-1.61-3.438-2.563-5.068c-0.95-1.635-2.001-3.221-3.126-4.738c-1.458-1.966-2.915-3.958-4.596-5.728
		c-1.896-2.001-4.015-3.801-6.077-5.623c-1.146-1.005-2.334-1.979-3.614-2.79c-2.124-1.34-4.311-2.594-6.521-3.778
		c-2.601-1.387-5.309-2.533-8.151-3.311c-0.327-0.091-0.75-0.328-0.965-0.208c-0.239,0.136-0.315,0.595-0.434,0.925
		c-0.546,1.657-1.078,3.316-1.604,4.979c-0.134,0.399-0.085,0.761,0.391,0.906c3.087,1.015,6.104,2.171,8.915,3.82
		c1.25,0.731,2.563,1.385,3.74,2.222c1.646,1.169,3.306,2.364,4.783,3.74c2.294,2.134,4.596,4.296,6.604,6.688
		c1.721,2.047,3.063,4.403,4.521,6.666c1.687,2.609,2.896,5.476,3.854,8.411c0.748,2.289,1.28,4.649,1.85,6.999
		c0.64,2.646,0.896,5.343,0.929,8.055c0.021,1.813-0.093,3.631-0.188,5.438c-0.063,1.172-0.104,2.357-0.327,3.507
		c-0.415,2.134-0.874,4.265-1.475,6.351c-0.563,1.953-1.267,3.873-2.016,5.768c-0.603,1.51-1.271,2.998-2.063,4.406
		c-0.876,1.558-1.875,3.052-2.918,4.507c-1.25,1.741-2.486,3.513-3.931,5.088c-2.741,3.005-5.716,5.771-9.156,7.982
		c-2.37,1.521-4.767,2.979-7.352,4.144c-2.771,1.242-5.604,2.208-8.521,3.028c-2.517,0.707-5.091,0.989-7.646,1.396
		c-1.563,0.245-3.164,0.21-4.75,0.24c-0.679,0.021-1.354-0.128-2.021-0.183c-1.271-0.104-2.554-0.144-3.813-0.295
		c-1.563-0.194-3.11-0.445-4.653-0.743c-1.493-0.29-3.014-0.549-4.443-1.04c-2.165-0.742-4.313-1.564-6.374-2.557
		c-2.181-1.054-4.346-2.188-6.347-3.542c-2.308-1.563-4.501-3.311-6.604-5.138c-1.549-1.349-2.937-2.896-4.257-4.468
		c-1.729-2.06-3.271-4.254-4.674-6.563c-1.764-2.896-3.229-5.923-4.313-9.118c-0.722-2.119-1.267-4.304-1.813-6.471
		c-0.251-0.981-0.354-2.017-0.513-3.021c-0.178-1.104-0.475-2.214-0.479-3.319c-0.031-3.85-0.304-7.707,0.508-11.521
		c0.443-2.119,0.715-4.289,1.329-6.354c0.713-2.389,1.646-4.713,2.62-7.009c1.075-2.532,2.506-4.879,4.023-7.18
		c1.496-2.268,3.171-4.373,5.021-6.325c1.588-1.67,3.367-3.148,5.091-4.688c2.132-1.896,4.539-3.413,7.015-4.813
		c3.923-2.229,8.078-3.909,12.464-4.979c1.717-0.421,3.453-0.786,5.197-1.046c1.712-0.255,3.442-0.353,5.179-0.486
		c0.543-0.045,1.091-0.014,1.717-0.014c0,1.557,0,2.98,0,4.417c0.065,0.055,0.129,0.104,0.193,0.147
		c3.582-2.652,7.163-5.311,10.884-8.063c-3.729-2.982-7.305-5.854-11.056-8.854C68.072,9.285,68.072,10.964,68.072,12.708
		L68.072,12.708L68.072,12.708z M101.566,69.184c-15.917-9.563-31.642-18.999-47.465-28.501c0,19.288,0,38.396,0,57.688
		C69.945,88.625,85.676,78.954,101.566,69.184L101.566,69.184z"/>
	<path fill="#FFFFFF" d="M68.072,12.708c0-1.744,0-3.423,0-5.337c3.761,3.003,7.324,5.863,11.063,8.854
		c-3.721,2.754-7.302,5.397-10.883,8.062c-0.064-0.05-0.128-0.099-0.194-0.146c0-1.438,0-2.86,0-4.416
		c-0.622,0-1.174-0.036-1.717,0.011c-1.729,0.141-3.464,0.229-5.188,0.489c-1.737,0.262-3.479,0.629-5.188,1.048
		c-4.396,1.063-8.542,2.754-12.464,4.979c-2.479,1.399-4.89,2.913-7.019,4.814c-1.72,1.54-3.505,3.021-5.088,4.688
		c-1.854,1.952-3.521,4.063-5.021,6.325c-1.522,2.301-2.948,4.647-4.023,7.179c-0.976,2.292-1.911,4.621-2.623,7.014
		c-0.617,2.063-0.883,4.23-1.33,6.354c-0.806,3.813-0.541,7.673-0.505,11.521c0.011,1.104,0.313,2.222,0.479,3.317
		c0.148,1.014,0.262,2.034,0.513,3.021c0.556,2.17,1.099,4.349,1.813,6.467c1.075,3.199,2.553,6.222,4.313,9.12
		c1.403,2.31,2.945,4.504,4.674,6.563c1.32,1.572,2.708,3.12,4.253,4.473c2.104,1.825,4.294,3.569,6.604,5.134
		c2,1.353,4.166,2.493,6.347,3.543c2.063,0.981,4.209,1.813,6.374,2.555c1.438,0.491,2.951,0.75,4.444,1.04
		c1.542,0.298,3.098,0.552,4.647,0.742c1.271,0.159,2.544,0.188,3.818,0.295c0.675,0.057,1.349,0.194,2.021,0.188
		c1.587-0.03,3.188,0.008,4.75-0.24c2.557-0.401,5.131-0.688,7.646-1.396c2.916-0.813,5.75-1.789,8.516-3.023
		c2.585-1.157,4.979-2.611,7.354-4.146c3.438-2.216,6.415-4.979,9.154-7.979c1.438-1.576,2.686-3.352,3.933-5.089
		c1.043-1.451,2.042-2.946,2.918-4.511c0.791-1.403,1.463-2.896,2.059-4.4c0.748-1.896,1.453-3.813,2.021-5.771
		c0.598-2.085,1.053-4.212,1.471-6.347c0.229-1.146,0.271-2.333,0.331-3.507c0.096-1.813,0.21-3.629,0.188-5.438
		c-0.034-2.708-0.288-5.406-0.933-8.05c-0.563-2.354-1.101-4.709-1.846-6.999c-0.958-2.938-2.165-5.802-3.854-8.413
		c-1.452-2.258-2.806-4.622-4.521-6.667c-2.009-2.396-4.313-4.562-6.604-6.688c-1.479-1.373-3.136-2.571-4.78-3.74
		c-1.188-0.833-2.49-1.481-3.74-2.222c-2.813-1.646-5.831-2.813-8.916-3.819c-0.479-0.151-0.521-0.509-0.391-0.909
		c0.523-1.659,1.063-3.317,1.605-4.979c0.108-0.329,0.188-0.788,0.43-0.929c0.221-0.119,0.641,0.118,0.969,0.208
		c2.853,0.771,5.56,1.928,8.147,3.313c2.219,1.188,4.399,2.438,6.521,3.772c1.282,0.813,2.474,1.785,3.612,2.79
		c2.064,1.823,4.187,3.625,6.073,5.624c1.687,1.771,3.144,3.767,4.602,5.729c1.128,1.521,2.179,3.104,3.126,4.736
		c0.948,1.638,1.828,3.324,2.563,5.065c0.987,2.339,1.885,4.729,2.676,7.135c0.528,1.624,0.891,3.317,1.189,5
		c0.336,1.841,0.552,3.702,0.771,5.563c0.139,1.145,0.194,2.294,0.271,3.438c0.073,1.163,0.201,2.329,0.157,3.489
		c-0.063,1.567-0.269,3.139-0.403,4.708c-0.015,0.146-0.002,0.306-0.021,0.451c-0.329,2.033-0.642,4.071-1.021,6.104
		c-0.271,1.443-0.586,2.891-0.987,4.299c-0.944,3.316-2.259,6.51-3.896,9.541c-1.195,2.2-2.406,4.402-3.786,6.491
		c-1.122,1.701-2.445,3.284-3.786,4.823c-1.437,1.646-2.922,3.271-4.521,4.747c-1.521,1.396-3.188,2.634-4.832,3.882
		c-1.438,1.083-2.893,2.146-4.402,3.1c-1.461,0.902-2.994,1.699-4.545,2.438c-1.8,0.854-3.614,1.693-5.489,2.354
		c-2.271,0.798-4.598,1.474-6.935,2.058c-1.616,0.401-3.297,0.53-4.938,0.849c-3.97,0.761-7.979,0.584-11.976,0.5
		c-1.732-0.033-3.467-0.396-5.191-0.664c-1.504-0.229-3-0.521-4.479-0.838c-0.936-0.195-1.838-0.479-2.738-0.771
		c-1.417-0.465-2.854-0.892-4.218-1.479c-2.329-1.01-4.625-2.104-6.901-3.229c-1.228-0.604-2.418-1.31-3.563-2.051
		c-1.396-0.901-2.8-1.825-4.08-2.878c-1.957-1.601-3.876-3.257-5.704-4.995c-1.229-1.168-2.339-2.479-3.382-3.813
		c-1.498-1.932-2.974-3.892-4.309-5.938c-1.134-1.729-2.188-3.539-3.043-5.428c-1.137-2.513-2.08-5.108-3.02-7.707
		c-0.541-1.489-0.988-3.024-1.33-4.577c-0.4-1.822-0.617-3.688-0.963-5.521c-0.563-2.939-0.554-5.91-0.502-8.883
		c0.021-1.733,0.064-3.48,0.282-5.203c0.22-1.773,0.604-3.527,0.983-5.277c0.362-1.679,0.698-3.377,1.245-4.997
		c0.838-2.486,1.729-4.979,2.813-7.363c1.012-2.224,2.188-4.386,3.507-6.438c1.393-2.179,2.979-4.228,4.563-6.271
		c0.944-1.228,1.938-2.438,3.067-3.479c2.062-1.896,4.166-3.763,6.396-5.439c2.242-1.688,4.604-3.266,7.024-4.672
		c1.799-1.042,3.785-1.771,5.716-2.576c1.563-0.648,3.137-1.281,4.747-1.786c1.615-0.507,3.273-0.877,4.938-1.235
		c1.75-0.379,3.51-0.787,5.277-0.979c1.935-0.21,3.876-0.187,5.816-0.265C67.39,12.766,67.683,12.735,68.072,12.708L68.072,12.708
		L68.072,12.708z"/>
	<path fill="#FFFFFF" d="M101.566,69.184c-15.891,9.771-31.621,19.438-47.465,29.185c0-19.283,0-38.399,0-57.688
		C69.926,50.185,85.649,59.627,101.566,69.184L101.566,69.184L101.566,69.184z"/>
</g>
</svg>
