<?xml version="1.0" encoding="utf-8"?>
<!-- Generator: Adobe Illustrator 15.0.0, SVG Export Plug-In . SVG Version: 6.00 Build 0)  -->
<!DOCTYPE svg PUBLIC "-//W3C//DTD SVG 1.1//EN" "http://www.w3.org/Graphics/SVG/1.1/DTD/svg11.dtd">
<svg version="1.1" id="Layer_1" xmlns="http://www.w3.org/2000/svg" xmlns:xlink="http://www.w3.org/1999/xlink" x="0px" y="0px"
	 width="300px" height="300px" viewBox="0 0 300 300" enable-background="new 0 0 300 300" xml:space="preserve">
<path fill="#383C4A" d="M149.998,145.939H37.59c-6.039,0-7.574-1.53-7.578-7.549c0-8.047,0-16.098,0-24.145
	c0-4.374,1.975-6.339,6.354-6.477c0.598,0,1.189,0,1.787,0h223.625c1.1-0.045,2.188-0.006,3.271,0.112
	c3.002,0.445,4.84,2.396,4.862,5.431c0.071,9.043,0.071,18.095,0,27.151c-0.022,3.343-2.093,5.332-5.431,5.431
	c-2.783,0.099-5.568,0.035-8.354,0.035L149.998,145.939z"/>
<path fill="#BA9666" d="M48.178,265.714c2.438-8.802,4.789-17.276,7.153-25.798c0.88-3.148,1.976-6.26,2.621-9.459
	c0.459-2.216,1.481-2.749,3.638-2.745c34.194,0.065,68.387,0.081,102.576,0.046c24.646,0,49.296,0.039,73.949-0.063
	c2.468,0,3.376,0.738,3.998,3.074c2.884,10.83,5.988,21.603,8.998,32.396c0.214,0.755,0.336,1.535,0.56,2.547L48.178,265.714
	L48.178,265.714z"/>
<path fill="#BA9666" d="M144.414,157.16v59.539H61.856c2.167-7.807,4.284-15.438,6.417-23.068
	c3.169-11.354,6.363-22.707,9.508-34.104c0.419-1.521,0.745-2.622,2.833-2.612c20.769,0.089,41.536,0.06,62.304,0.069
	C143.42,157.018,143.92,157.076,144.414,157.16z"/>
<path fill="#BA9666" d="M155.521,216.68v-59.52c1.141-0.064,2.188-0.168,3.23-0.168c19.87,0,39.743,0.049,59.618-0.074
	c2.503,0,3.351,0.811,3.942,3.102c4.938,17.982,9.979,35.938,14.986,53.896c0.235,0.852,0.426,1.718,0.688,2.789L155.521,216.68z"/>
<path fill="#383C4A" d="M67.168,156.968c-4.191,15.046-8.229,29.563-12.277,44.072c-5.7,20.446-11.477,40.87-17.041,61.354
	c-0.778,2.879-2.004,3.674-4.856,3.604c-8.146-0.189-16.291-0.035-24.446-0.078c-5.543-0.029-7.77-3.209-5.869-8.434
	c11.881-32.729,23.765-65.443,35.65-98.166c0.652-1.813,1.48-2.42,3.396-2.399C50.059,157.021,58.391,156.968,67.168,156.968z"/>
<path fill="#383C4A" d="M232.803,156.968h10.647c4.772,0,9.547,0.114,14.315-0.055c2.229-0.079,3.235,0.597,4.021,2.784
	c10.603,29.392,21.257,58.76,31.981,88.102c1.289,3.54,2.655,7.063,3.825,10.639c1.317,4.063-0.883,7.404-5.088,7.439
	c-9.146,0.129-18.269,0-27.43,0.104c-2.47,0.029-2.351-1.746-2.738-3.141c-7.062-25.216-14.099-50.438-21.104-75.667
	C238.477,177.252,235.695,167.33,232.803,156.968z"/>
<path fill="#BA9666" d="M194.021,58.643H105.98c1.432-5.184,2.73-10.224,4.324-15.17c0.193-0.607,1.975-0.988,3.012-0.988
	c19.865-0.059,39.728-0.073,59.588-0.043c4.662,0,9.334,0.074,13.998-0.035c1.877-0.045,2.826,0.439,3.305,2.424
	C191.287,49.337,192.665,53.785,194.021,58.643z"/>
<path fill="#BA9666" d="M155.646,69.739h41.467l7.572,27.018h-49.039V69.739z"/>
<path fill="#BA9666" d="M95.336,96.663c2.438-8.708,4.784-17.209,7.247-25.67c0.355-0.722,1.044-1.224,1.841-1.339
	c13.217-0.078,26.426-0.06,39.894-0.06v27.077L95.336,96.663z"/>
<path fill="#383C4A" d="M99.014,42.43c-0.34,1.383-0.567,2.41-0.85,3.422c-4.443,16.068-8.975,32.121-13.359,48.209
	c-0.592,2.178-1.479,2.963-3.82,2.914c-6.417-0.184-12.869-0.061-19.573-0.061c0.375-1.155,0.606-2.004,0.929-2.813
	c6.153-15.606,12.316-31.207,18.487-46.804c1.608-4.071,2.75-4.848,7.138-4.868C91.525,42.416,95.079,42.43,99.014,42.43z"/>
<path fill="#383C4A" d="M238.292,96.934c-6.937,0-13.871,0.035-20.802-0.063c-0.792-0.138-1.467-0.659-1.797-1.392
	c-4.877-17.252-9.697-34.521-14.459-51.81c-0.039-0.362-0.039-0.729,0-1.091c4.467,0,8.925-0.256,13.328,0.148
	c1.412,0.127,3.313,1.742,3.886,3.129c6.743,16.617,13.274,33.312,19.85,49.992C238.35,96.208,238.348,96.575,238.292,96.934z"/>
</svg>
