<?xml version="1.0" encoding="utf-8"?>
<!-- Generator: Adobe Illustrator 15.0.0, SVG Export Plug-In . SVG Version: 6.00 Build 0)  -->
<!DOCTYPE svg PUBLIC "-//W3C//DTD SVG 1.1//EN" "http://www.w3.org/Graphics/SVG/1.1/DTD/svg11.dtd">
<svg version="1.1" id="Layer_1" xmlns="http://www.w3.org/2000/svg" xmlns:xlink="http://www.w3.org/1999/xlink" x="0px" y="0px"
	 width="300px" height="300px" viewBox="0 0 300 300" enable-background="new 0 0 300 300" xml:space="preserve">
<path fill="#383C4A" d="M24.229,298.42c-2.979-1.057-6.132-1.786-8.91-3.232C5.642,290.134-0.034,279.304,1.977,268.5
	c3.756-20.29,7.604-40.581,12.128-60.709c6.41-28.514,13.435-56.883,20.296-85.286c0.522-2.165-0.043-3.032-1.918-3.948
	c-8.589-4.17-17.119-8.464-25.642-12.772c-3.675-1.856-5.562-5.277-5.147-8.933c0.414-3.656,3.01-6.824,6.717-7.375
	c2.074-0.318,4.195-0.033,6.113,0.82c23.01,11.35,45.977,22.798,68.897,34.348c4.798,2.399,6.472,7.562,4.165,11.967
	c-2.25,4.289-7.245,5.828-11.952,3.541c-6.237-3.037-12.431-6.194-18.649-9.293c-0.916-0.457-1.853-0.875-3.166-1.498V298.42H24.229
	z"/>
<path fill="#383C4A" d="M71.186,298.42v-34.79h3.84c67.381,0,134.758,0.101,202.134-0.104c10.074-0.021,18.076,3.242,21.27,14.604
	v5.795c-2.009,7.655-6.841,12.487-14.494,14.496L71.186,298.42L71.186,298.42z"/>
<path fill="#FFFFFF" d="M283.934,298.42c7.678-2,12.51-6.832,14.494-14.496v14.496H283.934z"/>
<path fill="#BA9666" d="M165.868,53.785c-13.589-1.243-23.294-10.129-24.983-23.275c-1.439-11.326,5.667-23.029,16.518-27.165
	c11.416-4.426,24.371-0.31,31.144,9.896c7.681,11.515,5.522,23.13-6.746,36.224c6.013,1.498,10.431,4.89,12.854,10.604
	c1.479,3.482,1.852,7.139,0.711,10.756c-5.086,16.213-13.512,30.279-27.057,40.859c-10.371,8.104-22.192,12.273-35.427,12.234
	c-8.107-0.023-16.217,0-24.329,0c-7.96-0.029-11.894-5.757-8.695-13.021c5.95-13.529,16.419-21,31.187-21.651
	c9.348-0.417,16.996-3.873,22.355-11.347c3.225-4.482,5.396-9.723,7.94-14.668C162.945,60.113,164.365,56.934,165.868,53.785z"/>
<path fill="#BA9666" d="M212.129,76.537c6.717,13.279,11.41,26.613,13.756,40.676c1.17,7.023,2.313,14.188,2.213,21.264
	c-0.227,15.916,7.508,26.016,21.829,31.23c7.196,2.613,14.824,4.053,22.334,5.682c5.278,1.137,8.155,4.082,8.188,9.508
	c0.044,5.504,0.074,11.017,0,16.52c-0.09,5.344-4.135,9.264-9.36,8.794c-16.526-1.487-32.235-5.786-46.583-14.354
	c-20.294-12.104-29.722-30.467-31.037-53.684c-0.479-8.443-1.949-16.83-2.877-25.251c-0.105-0.931-0.05-2.207,0.479-2.835
	c9.229-10.646,15.73-22.818,20.355-36.075C211.523,77.693,211.721,77.386,212.129,76.537z"/>
<path fill="#BA9666" d="M179.281,163.618c4.068,14.419,11.094,26.069,21.369,35.797c0.644,0.608,0.74,2.229,0.521,3.264
	c-2.173,10.161-4.614,20.271-6.653,30.462c-0.826,4.137-0.836,8.438-1.229,12.883h-34.573
	C159.3,217.234,167.24,190.318,179.281,163.618z"/>
</svg>
