<?xml version="1.0" encoding="utf-8"?>
<!-- Generator: Adobe Illustrator 15.0.0, SVG Export Plug-In . SVG Version: 6.00 Build 0)  -->
<!DOCTYPE svg PUBLIC "-//W3C//DTD SVG 1.1//EN" "http://www.w3.org/Graphics/SVG/1.1/DTD/svg11.dtd">
<svg version="1.1" id="Layer_1" xmlns="http://www.w3.org/2000/svg" xmlns:xlink="http://www.w3.org/1999/xlink" x="0px" y="0px"
	 width="300px" height="300px" viewBox="0 0 300 300" enable-background="new 0 0 300 300" xml:space="preserve">
<path fill="#383C4A" d="M299.127,50.515c-0.415-6.832-0.055-13.625-1.372-20.071c-3.812-18.654-21.336-31.228-39.796-29.229
	c-19.434,2.102-33.616,17.825-33.693,37.366c-0.039,11.25,0,22.497,0,33.743v3.025h-62.013c0-12.801-0.041-25.386,0.054-37.975
	c0.094-1.548,0.5-3.061,1.203-4.443c2.945-6.156,10.325-8.759,16.481-5.813c4.146,1.984,6.85,6.107,7.014,10.704
	c0.128,4.224,0.025,8.46,0.025,12.618h24.87c0-4.396,0.115-8.553,0-12.702c-0.791-24.457-23.146-41.429-46.658-35.459
	c-16.527,4.196-27.74,18.944-27.773,36.765c-0.047,44.604-0.047,89.207,0,133.812v3.813c5.037,1.244,6.475,2.487,13.087,5
	c3.856,1.493,7.813,2.739,11.844,3.729V150.21h61.793v26c4.66-1.101,9.438-1.62,14.229-1.547c3.645,0.035,7.277,0.313,10.883,0.829
	c-0.063-1.141-0.146-1.902-0.146-2.669c0-44.493,0-89,0-133.521c-0.05-1.451,0.091-2.901,0.414-4.315
	c1.622-5.998,7.173-9.601,13.552-8.925c5.934,0.701,10.463,5.636,10.652,11.606c0.152,4.231,0.027,8.478,0.027,12.851
	L299.127,50.515z M224.125,124.942h-61.766v-24.346h61.766V124.942z"/>
<path fill="#BA9666" d="M298.529,188.063v48.666c-9.646,0.463-19.252-1.396-28.021-5.438c-14.396-6.604-29.382-8.383-44.826-5.572
	c-5.563,1.016-11.052,2.902-16.289,5.088c-19.813,8.201-39.563,8.404-59.271,0c-20.056-8.537-40.011-8.558-60.062,0
	c-19.84,8.446-39.748,8.385-59.525-0.18c-9.332-4.12-19.436-6.202-29.635-6.105v-49.453c10.483-0.557,20.375,1.839,29.899,6.048
	c16.449,7.27,33.349,8.063,50.535,3.25c2.245-0.652,4.452-1.437,6.612-2.321l0,0c2.139-0.859,4.261-1.783,6.403-2.624
	c1.525-0.604,3.056-1.139,4.589-1.604l0,0h0.024c3.679-1.063,7.431-1.854,11.226-2.362l0.647-0.076
	c5.718-0.608,11.485-0.628,17.207-0.049l0.501,0.053c1.658,0.17,3.316,0.374,4.975,0.615c1.135,0.166,2.258,0.416,3.93,0.703
	c5.037,1.241,6.475,2.485,13.083,5c3.865,1.489,7.82,2.737,11.848,3.729c4.42,1.074,8.925,1.752,13.464,2.021l0.515,0.021
	l0.584,0.029c1.535,0.072,3.072,0.091,4.604,0.04c0.893-0.021,1.609-0.063,2.132-0.103l0.396-0.027l0.414-0.03l0.55-0.051
	c2.223-0.2,4.423-0.558,6.599-1.056l0,0c1.547-0.313,4.348-0.938,11.906-3.297l2.314-0.729c1.133-0.36,2.266-0.729,3.395-1.104
	c1.129-0.371,2.266-0.748,3.4-1.127l1.813-0.604l2.865-0.959l0.829-0.276h0.046c1.985-0.659,3.979-1.31,5.979-1.938
	c4.662-1.104,9.44-1.619,14.229-1.548c3.645,0.033,7.273,0.313,10.884,0.828c2.224,0.24,4.427,0.607,6.604,1.104l0.229,0.061
	c0.21,0.061,0.408,0.104,0.617,0.16c1.188,0.323,2.359,0.688,3.525,1.083l0.555,0.188l1.277,0.455l1.025,0.379
	c1.271,0.479,2.537,0.978,3.807,1.475l0.856,0.348l0.381,0.146l0.199,0.077l0.415,0.153l0.253,0.101l0.09,0.037
	c2.729,1.063,5.466,2.101,8.292,2.897l0.588,0.166C284.577,186.109,291.449,186.818,298.529,188.063z"/>
<path fill="#BA9666" d="M0.873,236.736c12.328,0.062,23.629,4.021,35.036,8.313c17.526,6.602,35.422,6.189,52.646-1.344
	c16.25-7.092,32.84-8.729,49.922-4.521c5.873,1.44,11.382,4.313,17.156,6.219c17.369,5.76,34.77,5.806,51.622-1.527
	c14.396-6.251,29.138-8.493,44.513-5.9c5.328,0.93,10.532,2.457,15.521,4.563c9.584,3.995,19.354,6.751,29.788,6.794
	c0.557,0.039,1.104,0.106,1.651,0.211v49.456H0.873V236.736z"/>
</svg>
