<?xml version="1.0" encoding="utf-8"?>
<!-- Generator: Adobe Illustrator 15.0.0, SVG Export Plug-In . SVG Version: 6.00 Build 0)  -->
<!DOCTYPE svg PUBLIC "-//W3C//DTD SVG 1.1//EN" "http://www.w3.org/Graphics/SVG/1.1/DTD/svg11.dtd">
<svg version="1.1" id="Layer_1" xmlns="http://www.w3.org/2000/svg" xmlns:xlink="http://www.w3.org/1999/xlink" x="0px" y="0px"
	 width="300px" height="300px" viewBox="0 0 300 300" enable-background="new 0 0 300 300" xml:space="preserve">
<path fill="#BA9666" d="M2.146,155.771c0.541-2.353,1.018-4.705,1.633-7.026c2.738-10.711,9.113-20.136,18.035-26.665
	c1.299-0.958,1.871-1.694,1.528-3.514c-5.067-26.86,12.481-53.063,38.865-58.178c27.554-5.351,53.815,12.082,58.867,39.553
	c1.065,5.789,0.433,11.94,0.147,17.901c-0.104,2.066,0.061,3.197,1.78,4.509c29.707,22.685,24.17,68.54-10.185,83.124
	c-5.229,2.219-11.16,3.104-16.866,3.777c-5.056,0.594-10.246,0.034-15.379,0l0.139,0.104c0.087-3.77,0.239-7.537,0.243-11.309
	c0.025-20.939,0.025-41.881,0-62.816c0-5.666-3.777-9.604-8.803-9.531c-4.952,0.078-8.487,3.925-8.6,9.443
	c-0.066,3.002,0,6.01,0,9.016v9.142l-1.01,0.532c-1.166-1.412-2.227-2.929-3.514-4.22c-4.086-4.107-9.531-4.332-13.135-0.653
	s-3.24,8.872,0.771,12.929c4.433,4.479,8.76,9.098,13.431,13.313c2.676,2.435,3.647,5,3.564,8.596
	c-0.195,8.513,0.078,17.038,0.165,25.562l0.1-0.098c-4.935,0.059-9.878,0.266-14.808,0.137
	C27.772,208.783,9.375,194.21,3.885,173.58c-0.642-2.417-1.131-4.873-1.693-7.316L2.146,155.771z"/>
<path fill="#383C4A" d="M238.241,209.225c0.126,1.532,0.354,3.063,0.362,4.596c0.035,7.854,0,15.705,0,23.563
	c0,1.044,0,2.084,0,3.488h3.424c10.08,0,20.162-0.03,30.242,0c16.604,0.056,27.676,11.172,27.705,27.771
	c0,2.604,0.063,5.24-0.025,7.854c-0.174,4.874-3.641,8.315-8.508,8.563c-0.969,0.047-1.938,0.021-2.907,0.021
	c-91.699,0-183.399,0.021-275.099,0.076c-5.381,0-9.176-1.604-11.303-6.624V263.41c0.113-0.151,0.286-0.29,0.329-0.464
	c3.808-14.907,12.997-22.101,28.354-22.101h32.688c0-8.979-0.021-17.565,0-26.162c0-1.814,0.227-3.643,0.348-5.459l-0.1,0.102
	h16.936l-0.14-0.104c0.19,1.133,0.318,2.271,0.382,3.418c0.034,8.229,0.021,16.463,0.021,24.689v3.313h140.034
	c0.058-0.996,0.166-2.015,0.17-3.028c0-8.331,0-16.662,0-24.997c0.063-1.146,0.183-2.292,0.363-3.432l-0.115,0.114h16.935
	L238.241,209.225z"/>
<path fill="#FFFFFF" d="M63.876,209.245c-0.122,1.819-0.338,3.639-0.347,5.458c-0.035,8.591,0,17.183,0,26.163h-32.7
	c-15.345,0-24.547,7.174-28.354,22.094c-0.043,0.174-0.218,0.313-0.33,0.465v-97.182c0.563,2.442,1.053,4.897,1.694,7.315
	c5.49,20.633,23.888,35.194,45.229,35.813C53.999,209.509,58.938,209.301,63.876,209.245z"/>
<path fill="#BA9666" d="M221.54,209.225c-14.509,0.922-28.619,0.381-41.155-8.574c-26.8-19.105-27.511-58.564-1.21-78.333
	c1.573-1.184,2.128-2.102,1.732-4.229c-4.767-26.83,12.894-52.793,39.163-57.732c27.551-5.177,53.557,12.131,58.634,39.537
	c1.104,5.971,0.382,12.321,0.078,18.478c-0.091,1.837,0.229,2.708,1.616,3.761c24.438,18.551,26.322,53.794,3.959,74.475
	c-8.729,8.063-19.09,12.438-31.008,12.769c-5.027,0.146-10.072-0.079-15.104-0.144l0.116,0.113c0.125-0.76,0.205-1.521,0.242-2.291
	c0-23.828,0-47.656,0-71.479c0.006-0.869-0.063-1.738-0.193-2.599c-0.71-4.179-4.317-7.245-8.557-7.274
	c-4.158,0-7.922,3.172-8.478,7.365c-0.29,2.192-0.188,4.445-0.208,6.668c-0.021,4.522,0,9.041,0,13.56l-0.938,0.559
	c-1.166-1.391-2.235-2.861-3.519-4.146c-4.094-4.104-9.552-4.333-13.135-0.689c-3.583,3.645-3.283,8.868,0.729,12.917
	c4.432,4.479,8.752,9.075,13.401,13.313c2.685,2.438,3.621,5.008,3.538,8.595c-0.188,8.515,0.083,17.021,0.169,25.563
	L221.54,209.225z"/>
<path fill="#BA9666" d="M150.954,14.843c14.446-0.063,26.209,11.599,26.271,26.046c0.063,14.446-11.6,26.209-26.045,26.271
	c-14.379,0.112-26.297-11.784-26.283-26.236C124.915,26.536,136.566,14.874,150.954,14.843z"/>
<path fill="#383C4A" d="M80.711,209.34H63.775c-0.086-8.521-0.358-17.047-0.164-25.561c0.082-3.598-0.889-6.159-3.565-8.596
	c-4.653-4.235-8.981-8.834-13.43-13.313c-4.013-4.056-4.302-9.306-0.771-12.928c3.53-3.621,9.049-3.465,13.135,0.654
	c1.299,1.3,2.349,2.808,3.515,4.22l1.009-0.532v-9.141c0-3.008-0.048-6.015,0-9.017c0.113-5.519,3.648-9.366,8.6-9.444
	c5.025-0.082,8.791,3.855,8.804,9.531c0.055,20.942,0.055,41.88,0,62.817C80.95,201.802,80.798,205.57,80.711,209.34z"/>
<path fill="#383C4A" d="M221.423,209.34c-0.086-8.513-0.354-17.029-0.169-25.561c0.083-3.588-0.865-6.159-3.54-8.596
	c-4.651-4.229-8.978-8.824-13.401-13.313c-4.013-4.061-4.285-9.284-0.729-12.923c3.557-3.64,9.041-3.414,13.137,0.688
	c1.272,1.296,2.35,2.75,3.514,4.145l0.938-0.563c0-4.521,0-9.037,0-13.562c0-2.223-0.083-4.476,0.208-6.667
	c0.553-4.177,4.311-7.326,8.471-7.365c4.254,0.027,7.869,3.112,8.563,7.31c0.134,0.86,0.198,1.729,0.192,2.6
	c0,23.825,0,47.653,0,71.481c-0.037,0.769-0.116,1.528-0.241,2.291L221.423,209.34z"/>
</svg>
