<?xml version="1.0" encoding="utf-8"?>
<!-- Generator: Adobe Illustrator 15.0.0, SVG Export Plug-In . SVG Version: 6.00 Build 0)  -->
<!DOCTYPE svg PUBLIC "-//W3C//DTD SVG 1.1//EN" "http://www.w3.org/Graphics/SVG/1.1/DTD/svg11.dtd">
<svg version="1.1" id="Layer_1" xmlns="http://www.w3.org/2000/svg" xmlns:xlink="http://www.w3.org/1999/xlink" x="0px" y="0px"
	 width="300px" height="300px" viewBox="0 0 300 300" enable-background="new 0 0 300 300" xml:space="preserve">
<path fill="#383C4A" d="M273.145,203.346c-4.752,7.317-9.127,14.915-14.324,21.901c-12.073,16.214-27.383,28.769-45.354,38.022
	c-1.652,0.816-3.479,1.256-5.332,1.269c-37.822,0.071-75.655,0.071-113.483,0c-1.621,0.046-3.229-0.291-4.697-0.981
	C54.275,244.764,31,215.994,20.633,176.93c-0.145-0.537-0.23-1.111-0.467-2.304h196.775c1.396,0,3.039,0.339,4.146-0.26
	c1.197-0.647,2.534-2.146,2.619-3.394c0.069-0.968-1.479-2.447-2.646-2.979c-1.166-0.531-2.756-0.228-4.162-0.228H18.414
	c-0.741-6.871-1.465-13.621-2.223-20.626H286.46c-0.58,5.845-0.618,11.714-1.842,17.331c-2.04,9.337-4.907,18.497-7.28,27.765
	c-0.688,2.688-2.146,3.229-4.752,3.229c-48.604-0.078-97.204-0.094-145.807-0.044c-2.685,0-6.329-0.831-6.313,3.439
	c0.016,4.279,3.607,3.496,6.33,3.496c47.082,0,94.162,0,141.242,0h4.188L273.145,203.346z"/>
<path fill="#383C4A" d="M151.389,292.346c-20.379,0-40.757,0-61.135,0c-6.175,0-10.6-3.527-11.334-8.839
	c-0.912-5.489,2.746-10.698,8.221-11.705c1.147-0.221,2.315-0.321,3.483-0.3c40.524,0,81.045,0,121.563,0
	c6.649,0,11.131,3.549,11.722,9.182c0.696,6.695-4.037,11.629-11.361,11.651c-16.278,0.042-32.559,0-48.858,0L151.389,292.346z"/>
<path fill="#383C4A" d="M185.337,139.979c0.537-1.073,0.745-1.61,1.031-2.079c12.604-21.626,25.224-43.248,37.853-64.863
	c4.125-7.013,11.463-10.293,18.733-8.742c11.759,2.514,17.567,15.033,11.655,25.771c-5.368,9.719-11.146,19.227-16.741,28.828
	c-3.655,6.271-7.253,12.568-11.021,18.766c-0.619,1.016-1.979,2.229-2.996,2.244c-11.711,0.161-23.422,0.102-35.14,0.102
	L185.337,139.979z"/>
<path fill="#BA9666" d="M87.908,112.149c-30.239,3.635-54.401-21.477-50.096-52.307c14.138-1.293,26.711,2.281,37.22,12.15
	C85.54,81.862,91.248,99.743,87.908,112.149z"/>
<path fill="#BA9666" d="M91.467,9.646c9.771,8.199,16.473,18.341,18.348,31.142c0.688,4.666,0.343,9.541,0,14.287
	c-0.307,4.248-2.181,7.571-5.559,10.739c-5.105,4.832-9.127,10.787-13.422,16.106c-1.525-2.404-3.34-5.781-5.654-8.772
	c-2.238-2.991-4.826-5.708-7.705-8.091c-2.38-1.864-3.988-4.541-4.516-7.518C69.105,39.989,76.938,19.382,91.467,9.646z"/>
<path fill="#BA9666" d="M144.59,59.784c4.617,31.313-19.963,55.303-48.527,52.383c-2.556-15.034-0.66-28.834,11.039-39.866
	C117.615,62.372,130.163,58.636,144.59,59.784z"/>
<path fill="#BA9666" d="M286.159,29.428c7.608-0.036,13.806,6.104,13.841,13.713s-6.104,13.806-13.713,13.841
	c-7.584,0.035-13.771-6.064-13.842-13.648c-0.057-7.625,6.078-13.85,13.701-13.905C286.15,29.428,286.154,29.428,286.159,29.428z"/>
<path fill="#BA9666" d="M13.104,257.771c5.69,0.063,10.254,4.729,10.191,10.418c-0.063,5.688-4.727,10.252-10.417,10.188
	s-10.252-4.729-10.19-10.416S7.414,257.71,13.104,257.771z"/>
<path fill="#BA9666" d="M16.46,15.526c3.813,0.021,6.888,3.129,6.867,6.942c-0.021,3.813-3.129,6.887-6.942,6.866
	c-3.813-0.021-6.888-3.129-6.867-6.941C9.611,18.611,12.677,15.581,16.46,15.526z"/>
<path fill="#BA9666" d="M270.818,254.337c-0.021,3.818-3.129,6.899-6.948,6.883c-3.818-0.021-6.899-3.131-6.882-6.95
	c0.02-3.813,3.13-6.896,6.949-6.881c0.033,0,0.063,0,0.101,0C267.816,247.462,270.838,250.559,270.818,254.337z"/>
</svg>
