<?xml version="1.0" encoding="utf-8"?>
<!-- Generator: Adobe Illustrator 15.0.0, SVG Export Plug-In . SVG Version: 6.00 Build 0)  -->
<!DOCTYPE svg PUBLIC "-//W3C//DTD SVG 1.1//EN" "http://www.w3.org/Graphics/SVG/1.1/DTD/svg11.dtd">
<svg version="1.1" id="Layer_1" xmlns="http://www.w3.org/2000/svg" xmlns:xlink="http://www.w3.org/1999/xlink" x="0px" y="0px"
	 width="300px" height="300px" viewBox="0 0 300 300" enable-background="new 0 0 300 300" xml:space="preserve">
<path fill="#383C4A" d="M4.504,279.471h70.737c-6.972-10.307-9.8-21.328-7.452-33.297c2.346-11.967,8.854-21.414,19.206-27.984
	c16.006-10.152,36.759-8.307,50.955,4.514c8.067,7.262,12.706,16.402,13.791,27.188c1.065,10.621-1.62,20.422-7.978,29.434h93.557
	V132.062h17.215V279.33H298v17.34H4.504V279.471z"/>
<path fill="#BA9666" d="M4.504,178.576c1.239,0.02,2.479,0.068,3.723,0.068c58.178,0,116.356,0,174.537,0
	c12.075,0,21.68,7.037,24.248,18.273c1.002,4.383,0.834,9.021,1.232,13.938h-26.93c0,5.563-0.063,10.773,0.104,15.984
	c0,0.451,1.498,1.191,2.307,1.207c6.875,0.1,13.754,0.059,20.635,0.059h3.332v32.713h-39.313
	c1.57-21.551-5.541-39.596-22.563-53.191c-12.1-9.666-26.146-13.643-41.524-12.334c-31.422,2.668-57.183,30.795-53.7,65.813H4.505
	L4.504,178.576L4.504,178.576z"/>
<path fill="#BA9666" d="M4.504,107.489c1.039-0.063,2.083-0.181,3.127-0.181c29.684,0,59.367-0.017,89.053-0.051
	c2.109,0,3.436,0.518,4.664,2.373c10.893,16.456,21.941,32.834,32.934,49.235c0.455,0.688,0.908,1.408,1.539,2.441
	c-0.949,0.059-1.565,0.137-2.178,0.137H5.943c-0.477,0-0.948-0.043-1.424-0.068L4.504,107.489z"/>
<path fill="#383C4A" d="M186.059,114.968V3.33h111.787v111.639L186.059,114.968L186.059,114.968z M222.413,21.631v73.646h16.972
	V72.073c3.551,0,6.608,0.163,9.646-0.031c12.773-0.808,22.559-10.772,23.513-23.821c0.856-11.763-7.655-23.675-19.81-25.414
	C242.835,21.359,232.633,21.935,222.413,21.631z"/>
<path fill="#BA9666" d="M222.413,21.631c10.21,0.313,20.422-0.272,30.319,1.157c12.146,1.757,20.666,13.669,19.81,25.414
	c-0.954,13.047-10.737,23.013-23.513,23.82c-3.036,0.195-6.096,0.031-9.646,0.031v23.205h-16.972L222.413,21.631L222.413,21.631z
	 M239.503,54.81c3.224,0,6.177,0.236,9.077-0.063c3.709-0.381,6.604-3.762,6.809-7.389c0.188-3.488-2.548-7.375-6.188-7.893
	c-3.141-0.453-6.385-0.09-9.694-0.09L239.503,54.81L239.503,54.81z"/>
<path fill="#383C4A" d="M239.514,54.81V39.38c3.313,0,6.563-0.349,9.691,0.092c3.631,0.518,6.382,4.401,6.191,7.892
	c-0.201,3.63-3.104,7.007-6.813,7.388C245.689,55.064,242.734,54.81,239.514,54.81z"/>
</svg>
