<?xml version="1.0" encoding="utf-8"?>
<!-- Generator: Adobe Illustrator 15.0.0, SVG Export Plug-In . SVG Version: 6.00 Build 0)  -->
<!DOCTYPE svg PUBLIC "-//W3C//DTD SVG 1.1//EN" "http://www.w3.org/Graphics/SVG/1.1/DTD/svg11.dtd">
<svg version="1.1" id="Layer_1" xmlns="http://www.w3.org/2000/svg" xmlns:xlink="http://www.w3.org/1999/xlink" x="0px" y="0px"
	 width="300px" height="300px" viewBox="0 0 300 300" enable-background="new 0 0 300 300" xml:space="preserve">
<path fill="#BA9666" d="M219.156,196.943c-0.359-5.146-5.69-8.484-10.948-8.709c-1.819-0.072-3.647,0-5.688,0v-122.3H97.455v122.279
	c-1.846,0-3.653-0.051-5.461,0c-6.667,0.23-11.804,5.215-11.912,11.844c-0.135,8.146-0.135,16.285,0,24.43
	c0.101,6.06,4.488,10.813,10.537,11.681c1.146,0.149,2.302,0.229,3.458,0.228c37.241,0,74.478,0,111.709,0
	c7.121,0,12.789-2.925,13.286-8.777C219.883,217.398,219.91,207.148,219.156,196.943z M184.632,188.031h-69.39V65.945h69.39V188.031
	L184.632,188.031z"/>
<path fill="#383C4A" d="M298.995,292.145c0,3.74-1.253,6.354-4.699,7.854h-27.931c-3.667-1.701-4.598-4.688-4.592-8.535
	c0.06-73.873,0.065-147.747,0.041-221.619V65.94H38.14v3.891c0,73.873,0.015,147.746,0.043,221.619c0,3.84-0.924,6.84-4.59,8.536
	H5.661l-4.656-4.641V6.787c1.487-3.459,4.09-4.795,7.844-4.705c6.783,0.169,13.57,0.048,20.359,0.048
	c7.13,0,8.928,1.804,8.934,8.933v17.52H261.67c0.053-1.076,0.135-2.02,0.141-2.958c0-5.335-0.021-10.667,0-15.997
	c0.033-5.162,2.338-7.475,7.443-7.493c7.271-0.021,14.544,0,21.816,0c5.755,0,7.863,2.119,7.863,7.913
	C298.934,104.088,298.955,198.119,298.995,292.145z"/>
<path fill="#FFFFFF" d="M1.004,295.348L5.66,300H1.004V295.348z"/>
<rect x="69.015" y="65.93" width="28.457" height="0.004"/>
</svg>
