<?xml version="1.0" encoding="utf-8"?>
<!-- Generator: Adobe Illustrator 15.0.0, SVG Export Plug-In . SVG Version: 6.00 Build 0)  -->
<!DOCTYPE svg PUBLIC "-//W3C//DTD SVG 1.1//EN" "http://www.w3.org/Graphics/SVG/1.1/DTD/svg11.dtd">
<svg version="1.1" id="Layer_1" xmlns="http://www.w3.org/2000/svg" xmlns:xlink="http://www.w3.org/1999/xlink" x="0px" y="0px"
	 width="300px" height="300px" viewBox="0 0 300 300" enable-background="new 0 0 300 300" xml:space="preserve">
<path fill="#383C4A" d="M299,292.568c-2.309,4.979-6.271,6.432-11.616,6.432c-90.94-0.105-181.883-0.133-272.823-0.077
	c-7.897,0-10.932-3.047-10.932-10.985V219.58c0-7.479,3.174-10.615,10.746-10.615c91.223,0,182.452-0.02,273.684-0.056
	c5.363,0,9.066,1.78,10.94,6.935L299,292.568L299,292.568z M86.678,262.589c9.799,0,19.594,0,29.391,0c4.205,0,7.256-2,8.647-5.478
	c2.349-5.924-1.972-11.789-8.782-11.789c-19.207-0.029-38.414-0.029-57.621,0c-6.018,0-10.058,3.541-10.004,8.725
	c0.055,5.184,4.027,8.574,10.135,8.579C67.857,262.609,77.27,262.6,86.678,262.589z M215.941,262.589c9.793,0,19.592,0.032,29.388,0
	c4.278,0,7.598-2.514,8.642-6.285c1.604-5.821-2.611-10.985-9.068-10.995c-19.396-0.021-38.801-0.021-58.192,0
	c-5.524,0-9.455,3.696-9.409,8.729c0.045,5.024,3.938,8.554,9.563,8.563C196.539,262.605,206.238,262.589,215.941,262.589z"/>
<path fill="#383C4A" d="M158.234,3.542c4.787,0.906,9.64,1.592,14.351,2.812c36.331,9.437,61.866,42.003,62.364,79.535
	c0.09,7.196,0.367,14.51-0.612,21.575c-2.005,14.509-14.963,25.496-29.576,25.895c-3.262,0.092-6.521,0-9.69,0
	c5.078-18.173,3.207-36.396,1.947-54.919h19.903c-2.685-27.786-28.112-57.821-66.046-57.585
	c-37.543,0.244-62.572,30.117-65.171,57.585h19.905c-1.262,18.437-3.106,36.578,1.837,54.552
	c-23.497,3.977-39.339-11.912-39.738-30.104C67.454,91.1,67.1,79.282,69.861,67.598c8-33.826,37.697-60.043,72.332-63.534
	c0.744-0.125,1.478-0.299,2.199-0.521L158.234,3.542L158.234,3.542z"/>
<path fill="#BA9666" d="M121.484,103.429c0.303-5.936-0.023-11.984,1.033-17.784c2.721-14.991,16.531-24.676,32.271-23.261
	c14.021,1.255,25.601,13.667,25.972,28.111c0.225,8.637,0.225,17.279,0,25.932c-0.416,15.738-13.664,28.361-29.473,28.35
	c-15.807-0.015-28.951-12.646-29.473-28.391c-0.141-4.321-0.022-8.646-0.022-12.967L121.484,103.429z"/>
<path fill="#BA9666" d="M92.441,191.034c4.49-16.776,13.89-29.433,28.621-38.062c0.67-0.396,2.066-0.271,2.756,0.187
	c18.346,12.069,36.677,12.077,54.991,0.022c0.693-0.453,2.084-0.613,2.748-0.229c14.729,8.606,24.111,21.313,28.633,38.087
	L92.441,191.034z"/>
<path fill="#FFFFFF" d="M86.678,262.589c-9.406,0-18.818,0-28.234,0c-6.106,0-10.082-3.383-10.133-8.578
	c-0.049-5.196,3.985-8.721,10.002-8.724c19.207,0,38.414,0,57.623,0c6.801,0,11.131,5.895,8.781,11.788
	c-1.359,3.479-4.443,5.468-8.646,5.479C106.271,262.605,96.477,262.589,86.678,262.589z"/>
<path fill="#FFFFFF" d="M215.941,262.589c-9.703,0-19.402,0-29.104,0c-5.623,0-9.521-3.537-9.562-8.565
	c-0.033-5.021,3.884-8.719,9.41-8.724c19.396-0.021,38.797-0.021,58.194,0c6.472,0,10.688,5.175,9.068,10.997
	c-1.044,3.771-4.362,6.266-8.646,6.282C235.533,262.621,225.734,262.589,215.941,262.589z"/>
</svg>
