<?xml version="1.0" encoding="utf-8"?>
<!-- Generator: Adobe Illustrator 15.0.0, SVG Export Plug-In . SVG Version: 6.00 Build 0)  -->
<!DOCTYPE svg PUBLIC "-//W3C//DTD SVG 1.1//EN" "http://www.w3.org/Graphics/SVG/1.1/DTD/svg11.dtd">
<svg version="1.1" id="Layer_1" xmlns="http://www.w3.org/2000/svg" xmlns:xlink="http://www.w3.org/1999/xlink" x="0px" y="0px"
	 width="300px" height="300px" viewBox="0 0 300 300" enable-background="new 0 0 300 300" xml:space="preserve">
<path fill="#BA9666" d="M255.95,282.559c0-6.138-0.06-11.972,0.086-17.798c0-0.684,1.086-1.473,1.839-1.961
	c8.102-5.209,11.718-14.271,9.257-23.34c-2.34-8.666-10.126-14.797-19.372-15.254c-9.017-0.451-17.688,5.687-20.494,14.521
	c-2.91,8.961,0.666,18.75,8.668,23.729c1.993,1.229,2.502,2.541,2.443,4.673c-0.127,4.875-0.031,9.756-0.031,15.229
	c-10.848-2.813-19.037-8.646-24.352-18.029c-7.564-13.383-7.538-27.057,0.869-39.967c9.549-14.578,23.533-19.729,40.812-16.942
	V60.11h-62.86v222.294h-17.504V25.148H161.04V-0.015H40.24v24.903H26.352v275.125h258.625v-17.457H255.95V282.559z M232.925,185.13
	h-17.123v-24.86h17.123V185.13z M215.665,110.276h17.328v24.719h-17.328V110.276z M87.398,235.042h-17.25v-24.541h17.25V235.042z
	 M87.441,185.003H70.158v-24.676h17.283V185.003z M87.479,134.905H70.17v-24.5h17.309V134.905z M87.566,84.907h-17.35V60.153
	c5.385,0,10.704-0.033,16.029,0.073c0.439,0,1.251,0.95,1.262,1.459C87.594,69.376,87.566,77.057,87.566,84.907L87.566,84.907z
	 M131.063,235.042h-17.19v-24.574h17.187L131.063,235.042z M113.872,185.093v-24.844h17.132v24.844H113.872z M131.1,134.926h-17.229
	v-24.532h17.249L131.1,134.926z M131.1,84.934h-17.229V60.386h17.249L131.1,84.934z"/>
<rect x="215.802" y="160.27" fill="#383C4A" width="17.123" height="24.854"/>
<rect x="215.665" y="110.276" fill="#383C4A" width="17.328" height="24.719"/>
<rect x="113.855" y="210.441" fill="#383C4A" width="17.203" height="24.602"/>
<rect x="70.148" y="210.501" fill="#383C4A" width="17.25" height="24.541"/>
<rect x="113.876" y="160.249" fill="#383C4A" width="17.133" height="24.844"/>
<rect x="70.158" y="160.327" fill="#383C4A" width="17.283" height="24.677"/>
<rect x="70.17" y="110.405" fill="#383C4A" width="17.309" height="24.5"/>
<rect x="113.855" y="110.394" fill="#383C4A" width="17.25" height="24.532"/>
<rect x="113.855" y="60.386" fill="#383C4A" width="17.25" height="24.543"/>
<path fill="#383C4A" d="M87.566,84.907h-17.35V60.153c5.385,0,10.704-0.033,16.029,0.073c0.439,0,1.251,0.95,1.262,1.459
	C87.594,69.376,87.566,77.057,87.566,84.907z"/>
<circle fill="#383C4A" cx="247.41" cy="244.74" r="21.105"/>
<rect x="40.232" y="-0.015" fill="#383C4A" width="120.799" height="25.137"/>
<rect x="197.777" y="49.337" fill="#383C4A" width="53.104" height="11.049"/>
<rect x="17.025" y="281.259" fill="#383C4A" width="267.95" height="18.757"/>
</svg>
