<?xml version="1.0" encoding="utf-8"?>
<!-- Generator: Adobe Illustrator 15.0.0, SVG Export Plug-In . SVG Version: 6.00 Build 0)  -->
<!DOCTYPE svg PUBLIC "-//W3C//DTD SVG 1.1//EN" "http://www.w3.org/Graphics/SVG/1.1/DTD/svg11.dtd">
<svg version="1.1" id="Layer_1" xmlns="http://www.w3.org/2000/svg" xmlns:xlink="http://www.w3.org/1999/xlink" x="0px" y="0px"
	 width="300px" height="300px" viewBox="0 0 300 300" enable-background="new 0 0 300 300" xml:space="preserve">
<path fill="#BA9666" d="M112.477,258.135c-13.783,0-27.156,0.664-40.437-0.176c-14.881-0.938-25.869-13.934-25.896-29.205
	c-0.053-35.791-0.053-71.582,0-107.375v-3.893c-0.709,0.349-1.399,0.732-2.07,1.152c-3.457,2.48-6.838,5.066-10.346,7.467
	c-9.639,6.584-22.002,4.477-28.522-4.776c-6.491-9.187-4.501-21.495,4.823-28.296C49.498,64.282,88.997,35.579,128.527,6.926
	c7.961-5.781,16.858-5.519,25.27,0.588c36.064,26.184,72.12,52.379,108.167,78.588c3.285,2.385,6.606,4.72,9.826,7.196
	c9.095,6.985,10.896,19.312,4.229,28.388c-6.567,8.943-18.787,10.935-28.146,4.496c-4.047-2.783-7.961-5.744-12.382-8.938v19.771
	c-25.224-3.554-47.808,2.146-68.132,17.601c-3.739-6.511-9.729-7.568-16.484-7.329c-7.729,0.271-15.471,0.059-23.212,0.063
	c-9.571,0-15.179,5.539-15.187,15.089c-0.025,30.471-0.025,60.938,0,91.408L112.477,258.135L112.477,258.135z"/>
<path fill="#383C4A" d="M297.489,209.633c-6.286-40.102-45.078-69.093-85.447-63.893c-37.296,4.807-65.035,33.996-67.938,71.455
	c-2.711,34.705,19.06,67.678,52.104,78.561c5.906,1.953,12.153,2.854,18.229,4.244h13.353c4.711-0.951,9.492-1.631,14.128-2.879
	c30.145-8.104,52.803-34.654,56.157-65.697c0.123-0.75,0.294-1.492,0.514-2.221v-13.342
	C298.219,213.787,297.805,211.729,297.489,209.633z"/>
<path fill="#BA9666" d="M183.137,175.406h76.188c0.762,0,1.379,0.617,1.379,1.379v7.771c0,0.76-0.617,1.377-1.379,1.377h-17.039
	c4.188,3.902,6.724,8.979,7.603,15.205h9.438c0.762,0,1.379,0.607,1.379,1.377v7.623c0,0.764-0.617,1.379-1.379,1.379h-9.438
	c-1.176,8.103-5.096,14.463-11.769,19.082c-6.672,4.611-15.029,6.931-25.073,6.938h-4.829l39.917,39.229
	c0.631,0.612,0.639,1.623,0.021,2.252c-0.299,0.309-0.706,0.479-1.133,0.479h-19.414c-1.274,0-2.502-0.504-3.41-1.397
	l-42.027-41.488c-0.268-0.254-0.417-0.604-0.42-0.979v-10.166c0-0.762,0.617-1.377,1.379-1.377H208.8
	c11.792,0,18.81-4.188,21.052-12.568h-46.713c-0.761,0-1.381-0.61-1.381-1.379v-7.635c0-0.762,0.62-1.379,1.381-1.379h46.719
	c-2.047-8.479-9.063-12.719-21.051-12.719h-25.668c-0.761,0-1.381-0.617-1.381-1.379v-10.246
	C181.756,176.023,182.376,175.406,183.137,175.406z"/>
</svg>
