<?xml version="1.0" encoding="utf-8"?>
<!-- Generator: Adobe Illustrator 15.0.0, SVG Export Plug-In . SVG Version: 6.00 Build 0)  -->
<!DOCTYPE svg PUBLIC "-//W3C//DTD SVG 1.1//EN" "http://www.w3.org/Graphics/SVG/1.1/DTD/svg11.dtd">
<svg version="1.1" id="Layer_1" xmlns="http://www.w3.org/2000/svg" xmlns:xlink="http://www.w3.org/1999/xlink" x="0px" y="0px"
	 width="300px" height="300px" viewBox="0 0 300 300" enable-background="new 0 0 300 300" xml:space="preserve">
<path fill="#383C4A" d="M298.273,293.207c-56.551,0-113.104,0.021-169.649,0.054c-2.301,0-3.619-0.723-4.871-2.608
	c-8.427-12.69-16.965-25.313-25.474-37.959c-0.583-0.863-1.136-1.731-1.862-2.885c2.088-0.738,3.963-1.438,5.859-2.074
	c15.334-5.148,30.667-10.32,46.031-15.396c1.542-0.511,3.185-0.635,4.785-0.36c43.334,8.36,86.662,16.752,129.984,25.172
	c1.906,0.367,2.775,1.152,3.391,2.897c3.479,10.005,7.096,19.972,10.676,29.944c0.32,0.896,0.756,1.74,1.146,2.609L298.273,293.207z
	"/>
<path fill="#BA9666" d="M149.97,210.594c-9.604-11.404-18.887-21.994-27.684-32.965c-14.751-18.4-28.218-37.684-38.07-59.236
	c-5.694-12.451-9.801-25.317-9.57-39.277c0.663-36.085,27.122-66.494,62.77-72.141c35.359-5.555,69.335,13.051,82.361,45.314
	c8.479,20.984,6.664,41.643-2.274,62.079c-10.139,23.177-24.299,43.813-39.979,63.452
	C168.807,188.738,159.564,199.234,149.97,210.594z M149.4,110.4c20.817,0.125,36.883-15.695,36.974-36.418
	c0.101-20.641-15.813-36.54-36.722-36.731c-19.467-0.162-36.104,16.446-36.231,36.183C113.29,93.639,129.481,110.278,149.4,110.4z"
	/>
<path fill="#BA9666" d="M104.478,293.057H1.717c11.745-33.295,23.416-66.469,35.313-100.256
	C59.665,226.448,81.958,259.583,104.478,293.057z"/>
<path fill="#BA9666" d="M278.438,238.577l-111.041-21.533c0.633-0.87,1.078-1.575,1.604-2.2
	c8.358-10.006,16.701-20.011,25.156-29.896c0.916-1.013,2.184-1.634,3.542-1.74c19.572-0.104,39.176-0.067,58.763-0.086
	c1.399,0,2.463,0,3.084,1.739c6.188,17.529,12.479,35.021,18.741,52.521C278.368,237.775,278.42,238.176,278.438,238.577z"/>
<path fill="#383C4A" d="M51.839,183.137c17.313,0,34.291,0,51.265,0.047c0.833,0.062,1.612,0.438,2.175,1.049
	c9.414,11.11,18.792,22.266,28.135,33.438c0.206,0.336,0.377,0.688,0.51,1.063c-5.873,2.009-11.649,3.994-17.444,5.94
	c-9.405,3.162-18.822,6.277-28.209,9.483c-1.366,0.465-2.197,0.474-3.101-0.87c-10.929-16.354-21.89-32.688-32.884-48.996
	C52.104,183.921,51.954,183.533,51.839,183.137z"/>
<path fill="#383C4A" d="M169.134,73.816c0,10.597-8.62,19.287-19.051,19.188c-11.023-0.107-19.236-8.347-19.201-19.266
	c0.039-10.827,8.517-19.162,19.422-19.098C160.579,54.707,169.109,63.391,169.134,73.816z"/>
</svg>
