<?xml version="1.0" encoding="utf-8"?>
<!-- Generator: Adobe Illustrator 15.0.0, SVG Export Plug-In . SVG Version: 6.00 Build 0)  -->
<!DOCTYPE svg PUBLIC "-//W3C//DTD SVG 1.1//EN" "http://www.w3.org/Graphics/SVG/1.1/DTD/svg11.dtd">
<svg version="1.1" id="Layer_1" xmlns="http://www.w3.org/2000/svg" xmlns:xlink="http://www.w3.org/1999/xlink" x="0px" y="0px"
	 width="300.958px" height="300.578px" viewBox="0 0 300.958 300.578" enable-background="new 0 0 300.958 300.578"
	 xml:space="preserve">
<path fill="#BA9666" d="M82.868,251.418V156.98h2.905c13.586,0,27.172,0.039,40.758,0c8.263-0.086,16.371,2.229,23.34,6.672
	c11.307,7.1,22.701,14.059,33.99,21.188c2.231,1.373,4.257,3.063,6.009,5.021c2.741,3.162,2.506,7.604-0.67,10.337
	c-6.134,5.271-12.313,10.569-18.906,15.274c-5.793,4.144-12.521,4.885-19.46,2.887c-8.822-2.553-17.697-4.94-26.48-7.629
	c-2.333-0.713-3.341-0.233-4.152,1.953c-0.813,2.188-2.02,4.344-3.244,6.896c1.685,0.519,3.193,0.985,4.709,1.403
	c10.219,2.813,20.367,5.986,30.704,8.304c8.857,1.987,17.305-0.345,24.598-5.617c6.471-4.688,12.688-9.715,18.646-15.051
	c9.741-8.729,8.425-22.81-2.521-29.998c-1.818-1.19-3.664-2.354-5.818-3.742l9.873-5.146c17.129-8.998,34.229-18.033,51.463-26.877
	c10.838-5.58,22.068-6.015,33.318-1.283c18.543,7.795,21.645,29.5,5.998,42.152c-21.813,17.604-43.709,35.104-65.572,52.654
	c-13.922,11.186-27.842,22.355-41.76,33.537c-13.896,11.188-28.918,13.115-45.139,5.662L82.868,251.418z"/>
<path fill="#383C4A" d="M72.644,205.111c0,12.812,0,25.625,0,38.437c-0.041,16.062-9.742,25.732-25.793,25.744
	c-6.461,0-12.922,0.056-19.384,0c-13.876-0.151-24.076-10.306-24.106-24.146c-0.061-26.715-0.061-53.438,0-80.148
	c0.037-13.756,10.072-23.806,23.826-23.979c7.116-0.092,14.239-0.071,21.356,0c14.041,0.127,23.744,9.836,24.097,24.015
	c0,0.221,0,0.438,0,0.657C72.638,178.827,72.64,191.969,72.644,205.111z"/>
<path fill="#BA9666" d="M240.443,118.601c-21.767,21.759-56.767,22.632-79.59,1.989c-0.396-0.348-0.789-0.715-1.172-1.079
	c-0.384-0.363-0.619-0.593-0.921-0.899c-0.383-0.383-0.766-0.761-1.135-1.154c-0.617-0.664-1.215-1.328-1.797-2.002
	c-2.517-2.863-4.724-5.978-6.599-9.289c-1.021-1.799-2.09-2.555-4.139-2.36c-2.05,0.194-4.088-0.103-6.091,0.093
	c-6.207,0.581-11.919-0.609-17.19-4.064c-0.777-0.51-2.397-0.413-3.297,0.037c-9.619,4.832-8.685,5.824-19.451-0.067
	c-1.061-0.485-2.276-0.485-3.336,0c-10.658,5.825-9.709,5.049-19.619-0.168c-1.428-0.86-3.178-0.995-4.721-0.362
	c-3.813,1.41-7.718,2.59-11.558,3.938c-2.882,1.021-5.534,0.741-8.063-1.021c-8.5-5.892-17.08-11.682-25.5-17.695
	c-5.141-3.653-4.992-9.896,0.148-13.524c8.395-5.905,16.771-11.827,25.314-17.494c1.779-1.17,4.309-1.702,6.479-1.712
	c28.783-0.113,57.565-0.113,86.349,0c2.371,0,3.664-0.654,4.924-2.811c0.844-1.449,1.744-2.846,2.688-4.174
	c0.263-0.393,0.543-0.787,0.836-1.17c0.867-1.18,1.771-2.313,2.729-3.428c0.263-0.301,0.515-0.592,0.774-0.889
	c0.268-0.297,0.515-0.582,0.8-0.863c0.471-0.512,0.957-1.021,1.448-1.533c22.871-22.244,59.445-21.736,81.693,1.135
	C262.267,60.461,262.265,96.179,240.443,118.601z"/>
<path fill="#383C4A" d="M199.777,58.643c10.556,0,19.111,8.557,19.111,19.109c0,10.552-8.558,19.109-19.111,19.109
	c-10.551,0-19.104-8.557-19.104-19.109C180.672,67.2,189.226,58.643,199.777,58.643z"/>
</svg>
