<?xml version="1.0" encoding="utf-8"?>
<!-- Generator: Adobe Illustrator 15.0.0, SVG Export Plug-In . SVG Version: 6.00 Build 0)  -->
<!DOCTYPE svg PUBLIC "-//W3C//DTD SVG 1.1//EN" "http://www.w3.org/Graphics/SVG/1.1/DTD/svg11.dtd">
<svg version="1.1" id="Layer_1" xmlns="http://www.w3.org/2000/svg" xmlns:xlink="http://www.w3.org/1999/xlink" x="0px" y="0px"
	 width="76.842px" height="57.631px" viewBox="0 0 76.842 57.631" enable-background="new 0 0 76.842 57.631" xml:space="preserve">
<g id="Layer_x0020_1">
	<path id="email" fill="#BA9666" d="M62.838,0h-50.27C5.655,0,0,5.655,0,12.568v31.419c0,6.912,5.655,12.568,12.568,12.568h50.271
		c6.912,0,12.568-5.656,12.568-12.568V12.568C75.405,5.655,69.75,0,62.838,0z M67.866,18.224L43.044,34.875
		c-1.57,0.942-3.457,1.571-5.341,1.571c-1.885,0-3.77-0.629-5.341-1.571L7.541,18.224c-1.257-0.943-1.571-2.828-0.628-4.399
		c0.943-1.257,2.828-1.571,4.399-0.628l24.821,16.651c0.943,0.629,2.514,0.629,3.456,0L64.41,13.196
		c1.569-0.943,3.456-0.628,4.397,0.942C69.437,15.396,69.123,17.28,67.866,18.224z"/>
</g>
</svg>
