<?xml version="1.0" encoding="UTF-8"?>
<!DOCTYPE svg PUBLIC "-//W3C//DTD SVG 1.1//EN" "http://www.w3.org/Graphics/SVG/1.1/DTD/svg11.dtd">
<!-- Creator: CorelDRAW -->
<svg xmlns="http://www.w3.org/2000/svg" xml:space="preserve" width="134.421mm" height="135.467mm" style="shape-rendering:geometricPrecision; text-rendering:geometricPrecision; image-rendering:optimizeQuality; fill-rule:evenodd; clip-rule:evenodd"
viewBox="0 0 134.421 135.467"
 xmlns:xlink="http://www.w3.org/1999/xlink">
 <defs>
  <style type="text/css">
   <![CDATA[
    .fil0 {fill:white}
   ]]>
  </style>
 </defs>
 <g id="Layer_x0020_1">
  <metadata id="CorelCorpID_0Corel-Layer"/>
  <g id="Page-1">
   <path id="whatsup" class="fil0" d="M68.4319 0c-36.4465,0 -65.9914,29.5437 -65.9914,65.9902 0,12.4664 3.46,24.1258 9.469,34.0727l-11.9095 35.4041 36.5356 -11.6983c9.4536,5.2286 20.326,8.2083 31.8963,8.2083 36.4442,0 65.989,-29.5425 65.989,-65.9861 0.0006,-36.4471 -29.5442,-65.9908 -65.989,-65.9908l0 0 0 -0.0001zm0 121.468c-11.27,0 -21.7631,-3.3803 -30.5241,-9.1752l-21.3207 6.8279 6.9293 -20.6039c-6.6414,-9.1463 -10.5656,-20.385 -10.5656,-32.5275 0,-30.592 24.8885,-55.48 55.4812,-55.48 30.5908,0 55.48,24.8879 55.48,55.48 0,30.5908 -24.8885,55.4788 -55.48,55.4788l-0.0001 -0.0001zm-15.4773 -82.773c-1.0689,-2.5762 -1.8878,-2.6635 -3.539,-2.742 -0.5663,-0.0271 -1.1804,-0.0531 -1.8524,-0.0531 -2.1272,0 -4.333,0.6265 -5.6621,1.9863 -1.6176,1.6548 -5.6621,5.5306 -5.6621,13.4887 0,7.9594 5.7966,15.6503 6.6042,16.7299 0.81,1.0783 11.3054,17.6501 27.6347,24.416 12.7454,5.2792 16.5298,4.8091 19.4376,4.1731 4.2309,-0.9238 9.5438,-4.0398 10.8918,-7.8154 1.348,-3.7779 1.348,-7.016 0.9439,-7.6885 -0.4047,-0.6755 -1.4831,-1.0784 -3.1007,-1.8896 -1.6175,-0.8088 -9.5716,-4.7218 -11.0541,-5.2604 -1.483,-0.5392 -2.854,-0.3746 -3.9944,1.2023 -1.5739,2.1786 -3.0877,4.4174 -4.3413,5.7447 -0.984,1.0419 -2.5673,1.187 -3.9289,0.6083 -1.7904,-0.7628 -6.8302,-2.519 -13.0097,-8.0278 -4.8079,-4.2864 -8.0549,-9.5816 -8.9988,-11.2016 -0.9439,-1.6176 -0.0832,-2.5833 0.6442,-3.4635 0.8295,-1.0046 1.5946,-1.7261 2.4034,-2.6694 0.8088,-0.9451 1.2607,-1.4483 1.7999,-2.529 0.5392,-1.0784 0.1764,-2.1916 -0.2283,-3.0016 -0.4053,-0.8099 -3.644,-8.7669 -4.9879,-12.0074z"/>
  </g>
 </g>
</svg>
