<svg id="SvgjsSvg1001" width="288" height="288" xmlns="http://www.w3.org/2000/svg" version="1.1" xmlns:xlink="http://www.w3.org/1999/xlink" xmlns:svgjs="http://svgjs.com/svgjs"><defs id="SvgjsDefs1002"></defs><g id="SvgjsG1008"><svg xmlns="http://www.w3.org/2000/svg" enable-background="new 0 0 70.949 71.5" viewBox="0 0 70.949 71.5" width="288" height="288"><path fill="#25d366" d="M36.119,0C16.882,0,1.288,15.593,1.288,34.83c0,6.58,1.826,12.734,4.998,17.984L0,71.5			l19.284-6.174c4.99,2.76,10.729,4.333,16.834,4.333c19.235,0,34.83-15.593,34.83-34.828C70.949,15.593,55.354,0,36.119,0L36.119,0
			L36.119,0z M36.119,64.111c-5.948,0-11.486-1.783-16.111-4.842L8.755,62.873l3.657-10.875C8.907,47.17,6.835,41.239,6.835,34.83
			c0-16.146,13.137-29.283,29.284-29.283c16.146,0,29.283,13.136,29.283,29.283C65.402,50.977,52.266,64.111,36.119,64.111
			L36.119,64.111L36.119,64.111z M27.95,20.423c-0.564-1.359-0.996-1.406-1.868-1.447c-0.299-0.014-0.623-0.028-0.978-0.028
			c-1.123,0-2.287,0.331-2.988,1.048c-0.854,0.874-2.988,2.919-2.988,7.12c0,4.201,3.06,8.26,3.485,8.83
			c0.428,0.57,5.967,9.316,14.586,12.887c6.727,2.786,8.725,2.538,10.26,2.202c2.232-0.487,5.037-2.133,5.748-4.125
			c0.711-1.994,0.711-3.703,0.498-4.059c-0.213-0.356-0.783-0.568-1.637-0.998c-0.854-0.433-5.053-2.492-5.834-2.775
			c-0.783-0.285-1.506-0.198-2.107,0.634c-0.832,1.149-1.631,2.332-2.293,3.032c-0.52,0.55-1.354,0.626-2.074,0.32
			c-0.943-0.401-3.604-1.33-6.866-4.236c-2.538-2.264-4.251-5.057-4.75-5.912c-0.498-0.854-0.044-1.364,0.34-1.828
			c0.438-0.53,0.842-0.911,1.269-1.409c0.427-0.499,0.666-0.764,0.95-1.335c0.285-0.569,0.093-1.156-0.121-1.584
			C30.369,26.333,28.659,22.134,27.95,20.423L27.95,20.423z" class="colorBA9666 svgShape"></path></svg></g></svg>